<svg viewBox="0 0 32 32" xmlns="http://www.w3.org/2000/svg" aria-hidden="true">
  <path fill="#25D366" d="M16 .5C7.44.5.5 7.44.5 16c0 2.73.71 5.29 2.05 7.59L.5 31.5l8.14-2.01A15.38 15.38 0 0016 31.5C24.56 31.5 31.5 24.56 31.5 16S24.56.5 16 .5z"/>
  <path fill="#fff" d="M24.6 19.7c-.3.9-1.5 1.6-2.4 1.8-.6.1-1.4.2-4-.8-3.3-1.3-5.4-4.6-5.6-4.8-.2-.3-1.3-1.7-1.3-3.2s.8-2.2 1.1-2.6c.3-.3.6-.4.8-.4h.6c.2 0 .5 0 .7.5.3.6.9 2.1.9 2.2.1.1.1.3 0 .4-.1.2-.2.4-.4.6-.2.2-.3.4-.5.5-.2.2-.4.4-.2.8.2.4.9 1.5 2 2.4 1.4 1.2 2.6 1.6 3 .1.1-.3.3-.4.5-.6.2-.2.3-.2.5-.1.1.1 1.8.8 2.1 1 .3.1.5.2.5.3.1.2.1 1.1-.2 1.8z"/>
</svg>
